HIERARCHY
ROOT Hips
{
	OFFSET 0.000000 0.000000 0.000000
	CHANNELS 6 Xposition Yposition Zposition Xrotation Yrotation Zrotation
	JOINT LeftUpLeg_virtual
	{
		OFFSET 0.000000 0.000000 0.000000
		CHANNELS 3 Xrotation Yrotation Zrotation
		JOINT LeftUpLeg
		{
			OFFSET 10.205400 -3.823500 0.155100
			CHANNELS 3 Xrotation Yrotation Zrotation
			JOINT LeftLeg
			{
				OFFSET 0.708757 -12.982077 0.567790
				CHANNELS 3 Xrotation Yrotation Zrotation
				JOINT LeftFoot
				{
					OFFSET -0.708756 -10.717838 -2.184338
					CHANNELS 3 Xrotation Yrotation Zrotation
					JOINT LeftToeBase
					{
						OFFSET 0.108149 -7.191104 7.560241
						CHANNELS 3 Xrotation Yrotation Zrotation
						JOINT LeftToe_End
						{
							OFFSET 0.070230 0.081724 4.490308
							CHANNELS 3 Xrotation Yrotation Zrotation
							End Site
							{
								OFFSET 0 0 0
							}
						}
					}
				}
			}
		}
	}
	JOINT RightUpLeg_virtual
	{
		OFFSET 0.000000 0.000000 0.000000
		CHANNELS 3 Xrotation Yrotation Zrotation
		JOINT RightUpLeg
		{
			OFFSET -10.205400 -3.823500 0.005500
			CHANNELS 3 Xrotation Yrotation Zrotation
			JOINT RightLeg
			{
				OFFSET -0.708756 -12.982134 0.610632
				CHANNELS 3 Xrotation Yrotation Zrotation
				JOINT RightFoot
				{
					OFFSET 0.708754 -10.717769 -1.945823
					CHANNELS 3 Xrotation Yrotation Zrotation
					JOINT RightToeBase
					{
						OFFSET -0.108140 -7.191069 7.372968
						CHANNELS 3 Xrotation Yrotation Zrotation
						JOINT RightToe_End
						{
							OFFSET -0.070227 0.081735 4.479403
							CHANNELS 3 Xrotation Yrotation Zrotation
							End Site
							{
								OFFSET 0 0 0
							}
						}
					}
				}
			}
		}
	}
	JOINT Spine_virtual
	{
		OFFSET 0.000000 0.000000 0.000000
		CHANNELS 3 Xrotation Yrotation Zrotation
		JOINT Spine
		{
			OFFSET 0.000000 6.876099 0.125700
			CHANNELS 3 Xrotation Yrotation Zrotation
			JOINT Spine1
			{
				OFFSET 0.000000 5.730043 0.104720
				CHANNELS 3 Xrotation Yrotation Zrotation
				JOINT Spine1_split
				{
					OFFSET 0.000000 5.730043 0.104720
					CHANNELS 3 Xrotation Yrotation Zrotation
					JOINT Spine2
					{
						OFFSET 0.000000 5.730043 0.104720
						CHANNELS 3 Xrotation Yrotation Zrotation
						JOINT Neck_virtual
						{
							OFFSET 0.000000 0.000000 0.000000
							CHANNELS 3 Xrotation Yrotation Zrotation
							JOINT Neck
							{
								OFFSET 0.000000 10.314075 0.188496
								CHANNELS 3 Xrotation Yrotation Zrotation
								JOINT Head
								{
									OFFSET 0.000000 7.643700 -2.377400
									CHANNELS 3 Xrotation Yrotation Zrotation
									JOINT HeadTop_End
									{
										OFFSET 0.000000 43.788605 -13.619600
										CHANNELS 3 Xrotation Yrotation Zrotation
										End Site
										{
											OFFSET 0 0 0
										}
									}
								}
							}
						}
						JOINT LeftShoulder_virtual
						{
							OFFSET 0.000000 0.000000 0.000000
							CHANNELS 3 Xrotation Yrotation Zrotation
							JOINT LeftShoulder
							{
								OFFSET 2.196100 4.412489 0.087492
								CHANNELS 3 Xrotation Yrotation Zrotation
								JOINT LeftShoulder_split
								{
									OFFSET 2.196100 4.412489 0.087492
									CHANNELS 3 Xrotation Yrotation Zrotation
									JOINT LeftArm
									{
										OFFSET 8.771219 -2.981674 -0.026999
										CHANNELS 3 Xrotation Yrotation Zrotation
										JOINT LeftForeArm
										{
											OFFSET 8.512804 0.000000 -0.000000
											CHANNELS 3 Xrotation Yrotation Zrotation
											JOINT LeftHand
											{
												OFFSET 18.484802 0.000000 -0.000000
												CHANNELS 3 Xrotation Yrotation Zrotation
												End Site
												{
													OFFSET 0 0 0
												}
											}
										}
									}
								}
							}
						}
						JOINT RightShoulder_virtual
						{
							OFFSET 0.000000 0.000000 0.000000
							CHANNELS 3 Xrotation Yrotation Zrotation
							JOINT RightShoulder
							{
								OFFSET -2.196100 4.412496 0.070690
								CHANNELS 3 Xrotation Yrotation Zrotation
								JOINT RightShoulder_split
								{
									OFFSET -2.196100 4.412496 0.070690
									CHANNELS 3 Xrotation Yrotation Zrotation
									JOINT RightArm
									{
										OFFSET -8.771282 -2.981682 -0.094208
										CHANNELS 3 Xrotation Yrotation Zrotation
										JOINT RightForeArm
										{
											OFFSET -8.494598 0.000000 0.000000
											CHANNELS 3 Xrotation Yrotation Zrotation
											JOINT RightHand
											{
												OFFSET -18.483803 0.000000 0.000001
												CHANNELS 3 Xrotation Yrotation Zrotation
												End Site
												{
													OFFSET 0 0 0
												}
											}
										}
									}
								}
							}
						}
					}
				}
			}
		}
	}
}
MOTION
Frames: 11
Frame Time: 0.03333333
-0.930701 27.427410 1.297602 0.000000 0.000000 0.000000 4.808200 58.320533 -10.830677 -1.310389 7.108168 30.286722 54.305560 -11.542864 12.121666 -39.766949 12.168481 -21.432604 -9.623148 -0.246902 -1.456318 0.000000 0.000000 0.000000 7.242198 58.797123 -13.030742 -40.179144 14.397634 -29.128636 36.299956 9.381154 -1.621741 -2.017220 7.162310 16.677157 -8.329101 -0.577817 1.330089 0.000000 0.000000 0.000000 5.052395 58.987187 -8.158132 0.977355 -3.123140 -2.318055 2.866506 -0.888566 -0.237765 1.381433 -0.363340 0.144385 0.000000 0.000000 0.000000 1.683491 -1.114229 -0.096531 -5.599928 -10.252837 -0.040379 -2.949011 -42.478138 5.977536 0.000000 0.000000 0.000000 1.625786 -1.137581 -0.416802 0.313260 -8.723101 -9.120144 -3.436277 0.855678 -2.190681 -2.207279 -43.270891 -50.785831 172.956154 -76.473489 173.051435 0.000000 0.000000 0.000000 2.486313 -0.882167 -0.308759 -0.037612 -1.545790 10.314792 -4.853259 6.313247 -0.085542 -24.073191 -8.665156 45.834408 -178.274166 67.116096 176.934835 0.000000 0.000000 0.000000 
-0.913371 28.525089 0.917465 0.000000 0.000000 0.000000 4.745443 56.231592 -10.704014 -1.498706 5.122722 30.246338 51.994115 -9.595027 10.686373 -33.899400 12.060323 -19.131730 -8.515704 -0.023972 -2.375504 0.000000 0.000000 0.000000 7.065639 55.811245 -12.318309 -39.219820 11.311263 -29.084318 31.699161 10.798124 -1.356635 0.510694 9.632426 21.247943 -10.331766 -0.083894 0.549503 0.000000 0.000000 0.000000 5.316493 56.211723 -8.373017 0.435820 -3.294235 -1.857789 2.600445 -0.896011 -0.141114 1.471984 -0.514810 0.121100 0.000000 0.000000 0.000000 2.139245 -1.033624 -0.093214 -5.428032 -10.060950 0.122081 -2.435617 -42.375115 5.997540 0.000000 0.000000 0.000000 1.676025 -1.128343 -0.279243 0.324497 -9.175616 -8.136324 -3.914210 -0.505356 -0.802237 -5.504180 -43.566464 -50.860744 174.958274 -75.094460 175.250428 0.000000 0.000000 0.000000 2.551869 -0.856605 -0.181211 -0.005159 -1.584953 9.870971 -5.232756 5.082320 -0.853274 -25.434798 -9.039086 44.880452 -179.151190 66.181576 177.480294 0.000000 0.000000 0.000000 
-0.745160 30.608576 0.227879 0.000000 0.000000 0.000000 4.486326 52.446536 -10.362738 -2.651749 2.771414 29.621649 47.527909 -7.786271 8.652079 -21.857761 10.223798 -18.616017 -5.648022 0.202762 -4.841308 0.000000 0.000000 0.000000 6.899614 50.902528 -11.485227 -36.676941 7.810672 -27.449919 23.499129 12.088542 -0.278997 2.649019 12.027432 23.910884 -10.175463 0.349468 0.137273 0.000000 0.000000 0.000000 5.396892 51.465687 -8.326833 -0.063222 -3.155972 -1.196056 2.429547 -0.758038 -0.162911 1.565010 -0.352314 0.129308 0.000000 0.000000 0.000000 2.650416 -0.814371 -0.188636 -5.068236 -9.540771 0.391917 -1.532199 -40.867679 6.035474 0.000000 0.000000 0.000000 1.913202 -0.938168 -0.223415 0.339060 -9.284114 -6.733796 -3.362995 -1.444048 -0.392724 -9.409752 -43.334159 -50.082345 177.442277 -72.712363 177.690950 0.000000 0.000000 0.000000 2.695548 -0.730836 -0.213721 0.089215 -1.318209 8.983621 -5.169574 3.760943 -0.684397 -27.326629 -7.644539 42.514581 -179.079992 65.226449 177.204395 0.000000 0.000000 0.000000 
-0.459804 33.052929 -0.649467 0.000000 0.000000 0.000000 3.912568 47.122759 -9.856088 -4.064388 1.133202 28.301447 43.437623 -5.935959 6.549946 -7.161669 6.948099 -18.285400 -6.244179 0.350254 -6.823537 0.000000 0.000000 0.000000 6.173673 44.969183 -10.440790 -33.555295 4.315800 -24.531929 16.334280 12.123409 1.194435 3.496443 12.433979 23.445046 -8.231197 0.592941 0.044053 0.000000 0.000000 0.000000 5.064978 45.553899 -7.827662 -0.243150 -2.755205 -0.520911 2.356385 -0.491918 -0.245473 1.370377 -0.227552 0.115237 0.000000 0.000000 0.000000 3.081239 -0.486085 -0.331102 -4.606996 -8.789291 0.681814 -0.416133 -38.038983 5.968484 0.000000 0.000000 0.000000 2.251814 -0.612212 -0.230369 0.315361 -8.988421 -5.234357 -2.483437 -1.641627 -0.755283 -13.205850 -42.164414 -48.947533 179.580331 -70.362881 179.621394 0.000000 0.000000 0.000000 2.894318 -0.489920 -0.369891 0.180836 -0.670205 7.949848 -4.712047 3.136956 0.012887 -28.982132 -4.712140 39.713541 -178.466368 64.647187 176.611425 0.000000 0.000000 0.000000 
-0.140656 35.303421 -1.373040 0.000000 0.000000 0.000000 2.961806 41.034086 -8.886157 -5.293390 0.686547 25.806596 40.841365 -3.966550 4.959412 3.803280 3.644905 -16.557488 -11.010812 0.664755 -7.335790 0.000000 0.000000 0.000000 4.645743 38.480534 -9.103654 -30.882967 1.204988 -21.194077 13.700347 10.836328 2.486238 2.949120 10.104386 20.565227 -6.928203 0.629738 0.025605 0.000000 0.000000 0.000000 4.262837 39.510035 -6.902855 -0.023486 -2.155707 0.032230 2.404934 -0.133948 -0.324706 1.040110 -0.149384 -0.074575 0.000000 0.000000 0.000000 3.352945 -0.093439 -0.450090 -4.105256 -7.825994 0.890881 0.681366 -34.260686 5.745163 0.000000 0.000000 0.000000 2.629734 -0.194157 -0.274036 0.230470 -8.300761 -3.930841 -1.856073 -1.077027 -1.254045 -16.344371 -40.232198 -47.854679 -178.944700 -68.736428 -179.165738 0.000000 0.000000 0.000000 3.103745 -0.142063 -0.578885 0.324305 0.327311 7.187066 -4.057258 3.307570 0.382718 -29.982382 -0.932067 37.349646 -177.676279 64.713788 176.090309 0.000000 0.000000 0.000000 
0.227972 36.903893 -1.815578 0.000000 0.000000 0.000000 1.599734 34.467375 -7.401177 -7.537374 1.338256 22.995671 41.099222 -1.908024 3.711946 8.159157 1.553951 -14.300773 -14.470268 1.106058 -7.554463 0.000000 0.000000 0.000000 2.424060 32.340802 -7.463832 -29.100578 -0.934899 -18.437978 17.225187 9.209283 3.149724 0.952752 6.058047 16.539949 -7.127617 0.538050 -0.135102 0.000000 0.000000 0.000000 2.972760 34.141295 -5.674024 0.520065 -1.447796 0.417441 2.546840 0.283338 -0.343188 0.778452 -0.032558 -0.248211 0.000000 0.000000 0.000000 3.421177 0.302730 -0.503130 -3.641513 -6.717340 0.940017 1.603830 -30.042935 5.380661 0.000000 0.000000 0.000000 2.969601 0.245643 -0.322673 0.128231 -7.411656 -3.078187 -1.739546 -0.295907 -1.789945 -17.981482 -37.738492 -47.115369 -178.175320 -68.072828 -178.609611 0.000000 0.000000 0.000000 3.298419 0.273237 -0.749282 0.540497 1.521468 7.029130 -3.382008 3.763542 0.332790 -30.128122 2.767171 36.034890 -177.134112 65.573976 176.010041 0.000000 0.000000 0.000000 
0.600542 37.799316 -2.197869 0.000000 0.000000 0.000000 0.256112 27.342936 -5.512984 -11.796945 2.035114 20.783912 43.613527 -0.236334 2.968760 7.860682 0.507670 -13.271778 -13.592045 1.407401 -7.463921 0.000000 0.000000 0.000000 0.443510 27.115759 -5.653028 -27.876107 -1.933956 -17.158125 25.273986 7.946891 3.365127 -2.190013 1.959596 12.819080 -6.926881 0.421798 -0.286883 0.000000 0.000000 0.000000 1.587491 28.847560 -4.455020 1.179302 -0.731699 0.583570 2.745083 0.697873 -0.305959 0.631005 0.221049 -0.095730 0.000000 0.000000 0.000000 3.333111 0.669980 -0.472255 -3.152877 -5.561199 0.809208 2.202611 -25.767602 4.938905 0.000000 0.000000 0.000000 3.225543 0.653075 -0.365621 0.072787 -6.320992 -2.790771 -2.004411 0.402845 -2.150710 -18.096803 -35.151032 -47.163023 -178.029099 -68.499120 -178.586224 0.000000 0.000000 0.000000 3.486418 0.704251 -0.843783 0.788918 2.654097 7.603632 -2.802219 4.301571 -0.187177 -29.800139 5.609590 35.954054 -177.147431 67.104532 176.500202 0.000000 0.000000 0.000000 
0.905989 38.050903 -2.524074 0.000000 0.000000 0.000000 -0.430159 20.676437 -3.555636 -17.443299 1.410551 19.450782 45.745376 0.015444 2.995257 6.837155 -0.364703 -15.240881 -9.317133 1.500220 -6.486837 0.000000 0.000000 0.000000 -0.532793 22.641109 -3.906745 -26.542849 -1.909992 -17.727785 33.825549 7.458339 3.095148 -5.286045 -0.916299 10.412143 -5.579633 0.381096 -0.312729 0.000000 0.000000 0.000000 0.483539 23.791663 -3.464546 1.646728 -0.024258 0.512876 2.919019 1.060665 -0.266861 0.434163 0.446928 0.393400 0.000000 0.000000 0.000000 3.207756 1.004027 -0.367561 -2.614765 -4.379915 0.537221 2.336265 -21.782972 4.487924 0.000000 0.000000 0.000000 3.332112 1.014504 -0.407852 0.079276 -5.125107 -3.123771 -2.462065 0.520791 -1.997919 -16.429308 -33.016247 -47.799354 -178.615034 -69.591042 -179.221227 0.000000 0.000000 0.000000 3.592650 1.112514 -0.846062 1.052831 3.587359 8.705523 -2.359641 4.581755 -0.903536 -29.410706 7.446720 37.009582 -177.615081 68.815536 177.321519 0.000000 0.000000 0.000000 
1.185898 37.763451 -2.591208 0.000000 0.000000 0.000000 -0.204259 14.833841 -1.834053 -23.192768 -0.449665 19.430150 45.247421 -1.165077 3.568917 7.267947 -1.555518 -19.660298 -5.530246 1.521763 -4.439372 0.000000 0.000000 0.000000 -0.400580 18.154327 -2.202381 -24.828383 -1.136663 -20.044110 39.119290 7.829003 2.255519 -6.581112 -2.075399 10.516672 -5.243907 0.459523 -0.217536 0.000000 0.000000 0.000000 -0.346022 18.804978 -2.582995 1.779752 0.602466 0.246257 2.984137 1.355710 -0.256935 0.504835 0.132000 0.910685 0.000000 0.000000 0.000000 3.102687 1.299455 -0.251783 -2.154662 -3.257018 0.244982 2.041378 -18.193437 4.105612 0.000000 0.000000 0.000000 3.205871 1.329250 -0.449964 0.118565 -3.992979 -3.924965 -3.096346 -0.332655 -1.509235 -13.574404 -30.986465 -48.704850 -179.650450 -70.757433 179.827515 0.000000 0.000000 0.000000 3.531170 1.468148 -0.760970 1.250728 4.208840 10.107016 -2.160627 4.312285 -1.489142 -29.189223 8.593327 38.813253 -178.426002 70.151896 178.300135 0.000000 0.000000 0.000000 
1.413417 37.036900 -2.625300 0.000000 0.000000 0.000000 0.711244 9.346366 -0.482634 -27.720596 -2.546608 20.484231 41.662481 -2.675332 4.298778 8.009597 -2.825153 -23.491959 -4.711182 1.463119 -1.752455 0.000000 0.000000 0.000000 0.530880 13.321499 -0.820666 -22.718143 -0.219285 -23.528518 39.945753 9.120436 1.398514 -5.547418 -1.755696 13.284074 -7.409121 0.588820 0.067576 0.000000 0.000000 0.000000 -0.437009 13.495072 -1.970646 1.610958 1.185298 -0.060338 2.956070 1.589490 -0.297144 0.762795 -0.547348 1.202187 0.000000 0.000000 0.000000 3.018095 1.578804 -0.188102 -1.933775 -2.251138 0.027494 1.505835 -14.935636 3.862197 0.000000 0.000000 0.000000 2.887899 1.619270 -0.490537 0.164837 -3.004145 -4.899162 -3.590896 -1.630765 -0.966440 -10.687580 -28.625219 -49.423836 179.313639 -71.652202 179.014860 0.000000 0.000000 0.000000 3.278747 1.764587 -0.651838 1.340390 4.566325 11.472584 -2.181579 3.614988 -1.758783 -29.165215 9.739936 40.825762 -179.258096 70.833057 179.127667 0.000000 0.000000 0.000000 
1.670112 35.845177 -2.684707 0.000000 0.000000 0.000000 1.914965 4.258220 0.214477 -30.862855 -4.112302 22.579253 37.399616 -4.007558 4.899316 7.772618 -3.803808 -25.932946 -4.530549 1.368005 -0.098570 0.000000 0.000000 0.000000 1.666053 7.870494 -0.016404 -21.082767 0.591748 -26.948858 38.251361 10.861716 0.564794 -4.262469 -0.705312 16.769390 -11.024380 0.665758 0.560190 0.000000 0.000000 0.000000 0.190311 8.072980 -1.532236 1.346049 1.727720 -0.222381 2.857137 1.764172 -0.350804 0.787778 -1.196989 1.441073 0.000000 0.000000 0.000000 2.941927 1.817971 -0.217178 -2.155334 -1.393532 -0.075752 0.807380 -11.830629 3.719660 0.000000 0.000000 0.000000 2.507501 1.864357 -0.512753 0.185084 -2.387201 -5.905234 -3.972345 -2.780272 -0.434790 -8.422532 -25.517307 -49.692464 178.795938 -71.736480 178.897107 0.000000 0.000000 0.000000 2.888852 2.006221 -0.557164 1.282306 4.792433 12.531722 -2.183010 2.669609 -1.532945 -29.278525 11.555195 42.626295 -179.781330 70.970802 179.563515 0.000000 0.000000 0.000000 
